<svg xmlns="http://www.w3.org/2000/svg" width="1055" height="994" viewBox="0 0 1055 994">
<g>
<path d="M 755.62 573.38 C749.08,577.57 743.01,580.98 742.12,580.96 C739.23,580.89 734.24,578.25 721.75,570.19 C715.01,565.85 691.72,550.91 670.00,536.99 C648.28,523.08 625.10,508.23 618.50,503.99 C611.90,499.75 594.35,488.52 579.50,479.04 C551.48,461.15 546.48,457.29 542.42,450.42 C541.67,449.15 541.03,448.11 540.48,447.01 C537.02,440.18 537.02,431.59 537.01,359.03 L 537.01 353.24 L 537.00 269.97 L 540.28 266.39 C542.90,263.53 544.52,262.70 548.23,262.28 C549.11,262.18 549.71,262.01 550.31,261.95 C553.08,261.68 556.06,263.60 587.53,283.81 C591.13,286.12 595.11,288.67 599.50,291.49 C710.86,362.93 733.44,377.26 736.13,378.20 C742.72,380.49 746.39,378.97 768.88,364.65 C790.11,351.12 792.68,349.56 792.97,347.65 C793.01,347.39 793.01,347.12 793.00,346.82 C793.00,346.73 793.00,346.63 793.00,346.53 C793.00,343.70 792.32,343.16 775.50,332.52 C760.70,323.16 744.60,312.86 689.50,277.50 C670.80,265.50 648.08,250.97 639.00,245.22 C629.92,239.47 621.27,233.61 619.76,232.20 C614.79,227.56 614.88,219.97 619.97,214.87 C622.43,212.42 623.63,212.00 628.24,212.00 C633.58,212.00 634.02,212.25 672.07,236.65 C693.21,250.20 728.05,272.54 749.50,286.28 C770.95,300.03 797.56,317.09 808.64,324.19 C819.72,331.29 829.62,338.02 830.64,339.15 C832.42,341.12 832.51,345.06 832.77,430.16 C833.02,510.77 832.89,519.43 831.41,522.55 C829.83,525.89 817.66,534.19 775.50,560.72 C771.10,563.49 762.15,569.18 755.62,573.38 ZM 565.75 789.39 C540.91,805.30 522.69,816.34 520.75,816.64 C520.43,816.70 520.16,816.75 519.89,816.79 C517.06,817.14 513.95,815.14 459.26,780.06 L 453.00 776.04 C431.27,762.11 402.48,743.65 389.00,735.02 C346.63,707.88 341.18,704.21 339.54,701.71 C338.12,699.54 337.98,693.69 338.22,649.16 L 338.50 599.04 L 341.00 596.63 C342.38,595.30 358.80,584.43 377.50,572.46 C396.20,560.50 420.05,545.23 430.50,538.52 C488.37,501.37 499.91,494.07 503.98,492.00 C510.07,488.91 523.37,488.09 531.10,490.34 C534.15,491.23 541.70,495.22 548.05,499.31 C554.35,503.36 568.28,512.30 579.00,519.17 C589.72,526.05 612.90,540.92 630.50,552.21 C648.10,563.51 670.38,577.76 680.00,583.88 C689.79,590.12 698.27,596.23 699.24,597.76 C701.87,601.89 701.53,608.22 698.47,611.85 C697.08,613.50 685.94,621.23 673.72,629.03 C642.92,648.67 638.68,651.38 585.00,685.85 L 582.68 687.34 C525.68,723.94 522.29,726.12 519.29,725.69 C519.06,725.65 518.83,725.60 518.58,725.56 C516.97,725.24 508.87,720.62 500.58,715.28 C457.43,687.53 373.16,633.53 370.85,632.16 C368.70,630.88 367.73,630.80 365.60,631.77 L 363.00 632.96 L 363.00 657.82 C363.00,659.63 363.00,661.32 362.99,662.92 C362.96,676.52 362.94,682.90 365.70,687.67 C368.46,692.45 374.00,695.62 385.08,702.80 C394.66,709.02 410.15,718.98 419.50,724.93 C428.85,730.89 453.10,746.41 473.39,759.43 C493.68,772.44 511.54,783.75 513.09,784.55 C516.46,786.29 523.29,786.44 526.32,784.85 C527.52,784.22 540.20,776.19 554.50,767.00 C680.90,685.84 683.14,684.36 685.60,683.80 C685.75,683.77 685.91,683.74 686.10,683.69 C689.97,682.72 695.59,684.73 698.44,688.11 C701.23,691.43 701.72,695.63 699.91,700.82 C699.79,701.18 699.70,701.48 699.58,701.78 C698.55,704.46 695.47,706.34 646.39,737.75 C625.00,751.45 588.71,774.68 565.75,789.39 ZM 301.40 580.04 C300.01,580.57 298.56,580.98 298.18,580.96 C295.87,580.83 291.01,577.80 288.70,575.06 L 286.00 571.85 L 286.00 482.87 C286.00,408.43 286.23,393.46 287.40,391.18 C288.34,389.37 296.59,383.49 312.15,373.53 C361.29,342.07 434.12,295.39 448.30,286.26 C461.68,277.64 463.08,276.47 462.80,274.13 C462.55,271.96 459.32,269.46 443.50,259.18 C414.79,240.52 411.99,239.55 401.89,244.80 C398.93,246.35 374.23,261.92 347.00,279.42 C319.77,296.92 283.42,320.25 266.21,331.26 C249.00,342.27 234.37,352.23 233.71,353.39 C232.80,354.97 232.38,376.24 232.00,438.69 L 231.50 521.89 L 228.06 525.43 C222.11,531.58 214.67,531.19 209.54,524.46 L 207.00 521.13 L 207.00 341.76 L 210.79 338.13 C212.87,336.13 235.71,321.01 261.54,304.53 C322.65,265.52 390.71,221.96 399.24,216.40 C404.83,212.75 406.79,212.00 410.77,212.00 C410.98,212.00 411.18,212.00 411.37,212.00 C411.76,211.99 412.12,211.99 412.48,212.00 C416.42,212.18 420.24,214.73 467.95,245.20 C484.69,255.90 499.32,265.89 500.45,267.40 C502.48,270.12 502.50,270.99 502.50,353.82 C502.50,358.78 502.50,363.47 502.50,367.89 C502.52,432.28 502.52,441.68 498.35,448.54 C497.35,450.18 496.12,451.68 494.58,453.75 C491.12,458.42 487.61,461.25 475.91,468.82 C452.94,483.69 391.49,523.10 321.72,567.70 C311.94,573.96 302.80,579.51 301.40,580.04 Z" fill="rgb(0,0,0)"/>
<path d="M 0.00 497.00 L 0.00 0.00 L 527.50 0.00 L 1055.00 0.00 L 1055.00 497.00 L 1055.00 994.00 L 527.50 994.00 L 0.00 994.00 L 0.00 497.00 ZM 565.75 789.39 C588.71,774.68 625.00,751.45 646.39,737.75 C700.94,702.83 698.66,704.40 699.91,700.82 C701.72,695.63 701.23,691.43 698.44,688.11 C695.59,684.73 689.97,682.72 686.10,683.69 C682.93,684.48 688.87,680.72 554.50,767.00 C540.20,776.19 527.52,784.22 526.32,784.85 C523.29,786.44 516.46,786.29 513.09,784.55 C511.54,783.75 493.68,772.44 473.39,759.43 C453.10,746.41 428.85,730.89 419.50,724.93 C410.15,718.98 394.66,709.02 385.08,702.80 C361.63,687.59 363.00,690.38 363.00,657.82 L 363.00 632.96 L 365.60 631.77 C367.73,630.80 368.70,630.88 370.85,632.16 C373.16,633.53 457.43,687.53 500.58,715.28 C508.87,720.62 516.97,725.24 518.58,725.56 C522.13,726.25 521.30,726.75 585.00,685.85 C638.68,651.38 642.92,648.67 673.72,629.03 C685.94,621.23 697.08,613.50 698.47,611.85 C701.53,608.22 701.87,601.89 699.24,597.76 C698.27,596.23 689.79,590.12 680.00,583.88 C670.38,577.76 648.10,563.51 630.50,552.21 C612.90,540.92 589.72,526.05 579.00,519.17 C568.28,512.30 554.35,503.36 548.05,499.31 C541.70,495.22 534.15,491.23 531.10,490.34 C523.37,488.09 510.07,488.91 503.98,492.00 C499.91,494.07 488.37,501.37 430.50,538.52 C420.05,545.23 396.20,560.50 377.50,572.46 C358.80,584.43 342.38,595.30 341.00,596.63 L 338.50 599.04 L 338.22 649.16 C337.98,693.69 338.12,699.54 339.54,701.71 C341.18,704.21 346.63,707.88 389.00,735.02 C402.48,743.65 431.27,762.11 453.00,776.04 C519.42,818.64 517.06,817.23 520.75,816.64 C522.69,816.34 540.91,805.30 565.75,789.39 ZM 301.40 580.04 C302.80,579.51 311.94,573.96 321.72,567.70 C391.49,523.10 452.94,483.69 475.91,468.82 C487.61,461.25 491.12,458.42 494.58,453.75 C502.96,442.43 502.50,448.27 502.50,353.82 C502.50,270.99 502.48,270.12 500.45,267.40 C499.32,265.89 484.69,255.90 467.95,245.20 C413.79,210.61 416.18,212.00 410.77,212.00 C406.79,212.00 404.83,212.75 399.24,216.40 C390.71,221.96 322.65,265.52 261.54,304.53 C235.71,321.01 212.87,336.13 210.79,338.13 L 207.00 341.76 L 207.00 431.45 L 207.00 521.13 L 209.54 524.46 C214.67,531.19 222.11,531.58 228.06,525.43 L 231.50 521.89 L 232.00 438.69 C232.38,376.24 232.80,354.97 233.71,353.39 C234.37,352.23 249.00,342.27 266.21,331.26 C283.42,320.25 319.77,296.92 347.00,279.42 C374.23,261.92 398.93,246.35 401.89,244.80 C411.99,239.55 414.79,240.52 443.50,259.18 C459.32,269.46 462.55,271.96 462.80,274.13 C463.08,276.47 461.68,277.64 448.30,286.26 C434.12,295.39 361.29,342.07 312.15,373.53 C296.59,383.49 288.34,389.37 287.40,391.18 C286.23,393.46 286.00,408.43 286.00,482.87 L 286.00 571.85 L 288.70 575.06 C291.01,577.80 295.87,580.83 298.18,580.96 C298.56,580.98 300.01,580.57 301.40,580.04 ZM 755.62 573.38 C762.15,569.18 771.10,563.49 775.50,560.72 C817.66,534.19 829.83,525.89 831.41,522.55 C832.89,519.43 833.02,510.77 832.77,430.16 C832.51,345.06 832.42,341.12 830.64,339.15 C829.62,338.02 819.72,331.29 808.64,324.19 C797.56,317.09 770.95,300.03 749.50,286.28 C728.05,272.54 693.21,250.20 672.07,236.65 C634.02,212.25 633.58,212.00 628.24,212.00 C623.63,212.00 622.43,212.42 619.97,214.87 C614.88,219.97 614.79,227.56 619.76,232.20 C621.27,233.61 629.92,239.47 639.00,245.22 C648.08,250.97 670.80,265.50 689.50,277.50 C744.60,312.86 760.70,323.16 775.50,332.52 C792.32,343.16 793.00,343.70 793.00,346.53 C793.00,349.39 793.89,348.71 768.88,364.65 C746.39,378.97 742.72,380.49 736.13,378.20 C733.44,377.26 710.86,362.93 599.50,291.49 C548.34,258.67 553.60,261.67 548.23,262.28 C544.52,262.70 542.90,263.53 540.28,266.39 L 537.00 269.97 L 537.01 353.24 C537.02,443.31 536.90,441.08 542.42,450.42 C546.48,457.29 551.48,461.15 579.50,479.04 C594.35,488.52 611.90,499.75 618.50,503.99 C625.10,508.23 648.28,523.08 670.00,536.99 C691.72,550.91 715.01,565.85 721.75,570.19 C734.24,578.25 739.23,580.89 742.12,580.96 C743.01,580.98 749.08,577.57 755.62,573.38 Z" fill="rgb(254,254,254)"/>
</g>
</svg>